<?xml version="1.0" standalone="no"?>
<!DOCTYPE svg PUBLIC "-//W3C//DTD SVG 20010904//EN"
 "http://www.w3.org/TR/2001/REC-SVG-20010904/DTD/svg10.dtd">
<svg version="1.0" xmlns="http://www.w3.org/2000/svg"
 width="800.000000pt" height="800.000000pt" viewBox="0 0 800.000000 800.000000"
 preserveAspectRatio="xMidYMid meet">
<metadata>
Created by potrace 1.11, written by Peter Selinger 2001-2013
</metadata>
<g transform="translate(0.000000,800.000000) scale(0.100000,-0.100000)"
fill="#000000" stroke="none">
<path d="M5600 7224 c-69 -29 -130 -57 -136 -63 -7 -5 -14 -8 -16 -5 -5 5
-108 -35 -122 -48 -6 -4 -18 -8 -28 -8 -10 0 -18 -4 -18 -8 0 -5 -6 -9 -13 -9
-7 0 -87 -30 -177 -67 -225 -92 -220 -90 -220 -99 0 -5 -4 -6 -10 -2 -5 3 -17
1 -27 -4 -10 -6 -58 -27 -108 -47 -49 -20 -101 -41 -115 -47 -14 -5 -29 -11
-35 -13 -10 -3 -294 -117 -330 -133 -32 -14 -349 -145 -475 -196 -63 -25 -124
-50 -135 -55 -60 -27 -542 -222 -554 -224 -8 -2 -17 -8 -19 -14 -2 -7 -7 -10
-12 -7 -4 2 -45 -11 -91 -31 -46 -19 -93 -39 -104 -44 -11 -4 -49 -20 -85 -33
-36 -14 -121 -49 -190 -77 -69 -29 -208 -85 -309 -126 -101 -41 -189 -78 -195
-81 -6 -4 -15 -8 -21 -9 -5 -2 -89 -35 -185 -74 -220 -90 -225 -92 -225 -89 0
2 -13 -4 -30 -13 -16 -9 -56 -26 -88 -38 -31 -12 -57 -27 -57 -32 0 -5 -5 -6
-10 -3 -6 4 -22 -1 -35 -9 -14 -9 -25 -14 -25 -12 0 3 -37 -10 -82 -30 -46
-19 -118 -49 -162 -66 -43 -16 -90 -36 -105 -44 -14 -8 -29 -14 -34 -14 -4 0
-26 -8 -50 -19 -23 -10 -58 -24 -77 -31 -19 -7 -60 -24 -90 -38 -30 -14 -58
-25 -61 -24 -3 0 -4 -10 -1 -23 2 -14 8 -25 13 -25 5 0 8 -3 7 -7 -1 -5 5 -21
12 -38 7 -16 12 -34 11 -39 -1 -5 3 -12 9 -16 6 -4 13 -13 14 -21 2 -8 8 -27
14 -42 7 -15 15 -39 18 -52 3 -14 11 -25 17 -25 6 0 7 -3 4 -6 -3 -4 -1 -16 5
-28 7 -11 13 -23 13 -26 1 -3 7 -18 13 -33 7 -15 15 -39 18 -52 3 -14 10 -25
15 -25 5 0 8 -3 7 -7 0 -5 2 -16 5 -25 10 -26 18 -52 18 -58 1 -3 4 -9 9 -15
4 -5 6 -18 5 -27 -2 -10 1 -18 7 -18 6 0 8 -7 4 -15 -3 -8 -2 -15 3 -15 4 0 8
-6 9 -12 0 -7 3 -24 6 -38 6 -25 13 -59 21 -112 3 -16 8 -43 11 -60 3 -18 7
-42 9 -53 2 -11 6 -33 9 -50 12 -62 19 -101 22 -130 2 -16 6 -41 9 -54 4 -13
8 -45 11 -70 2 -25 7 -57 11 -71 9 -35 10 -41 17 -80 3 -19 7 -44 9 -55 10
-49 18 -98 22 -128 3 -17 7 -43 10 -57 5 -23 23 -130 30 -175 2 -11 7 -38 11
-60 4 -22 8 -49 10 -60 1 -11 3 -20 4 -20 1 0 4 -13 5 -30 2 -16 6 -41 9 -55
4 -14 9 -41 12 -60 2 -19 10 -60 16 -90 6 -30 12 -66 14 -80 2 -14 6 -41 9
-60 3 -19 11 -66 19 -105 7 -38 16 -88 20 -110 3 -22 8 -51 11 -65 3 -14 8
-43 11 -65 3 -22 8 -51 10 -65 3 -14 7 -36 9 -50 2 -14 6 -36 10 -50 3 -14 8
-38 10 -55 2 -16 9 -57 15 -90 6 -33 13 -76 15 -95 3 -19 8 -46 11 -60 6 -26
9 -44 18 -100 3 -19 13 -73 21 -120 8 -47 18 -101 22 -120 3 -19 6 -45 7 -57
0 -13 4 -23 8 -23 5 0 8 -6 6 -12 -2 -12 9 -99 18 -143 2 -11 6 -31 8 -45 3
-14 7 -41 11 -60 3 -19 8 -46 10 -60 3 -14 7 -36 10 -50 2 -13 7 -40 10 -60 5
-35 10 -61 20 -110 2 -14 7 -41 10 -60 7 -43 55 -150 66 -150 5 0 8 -3 7 -7
-4 -13 44 -63 87 -92 38 -26 107 -57 150 -68 30 -7 180 -1 180 7 0 1 11 3 25
5 14 1 39 5 56 9 28 5 72 12 134 21 14 2 50 8 80 14 30 7 69 14 85 16 17 2 44
7 60 10 17 3 66 12 110 20 44 8 94 17 110 20 17 4 41 8 55 9 14 2 41 7 60 11
19 4 46 9 60 10 14 2 41 6 60 10 19 4 46 8 60 10 31 4 90 14 110 20 8 2 33 7
55 10 23 3 52 8 65 11 14 3 34 7 45 8 11 2 38 6 60 10 23 3 52 8 65 11 13 3
42 7 65 11 47 7 70 12 70 14 0 1 14 3 30 5 39 5 83 12 120 20 56 11 80 15 120
21 22 3 47 7 55 10 8 3 33 7 55 10 22 3 63 9 90 14 28 6 67 12 87 14 21 2 41
7 46 10 5 3 31 8 57 10 26 3 55 8 65 11 10 3 34 7 52 9 28 3 126 20 233 41 17
4 44 8 60 10 17 2 39 6 50 8 28 6 106 20 130 23 11 1 20 3 20 4 0 1 11 3 25 5
14 1 41 6 60 10 39 7 130 23 175 31 17 2 42 7 58 9 15 3 39 7 55 10 15 2 38 7
52 10 14 4 41 8 60 11 19 2 62 8 95 14 33 6 71 12 85 14 14 2 32 6 40 9 8 3
33 8 55 11 22 3 49 7 60 10 11 2 40 7 65 11 25 4 54 9 65 11 39 8 126 22 173
29 18 2 41 6 50 9 9 3 35 8 57 11 22 4 51 8 65 10 14 3 43 7 65 11 22 3 60 10
85 15 25 5 61 12 80 14 34 5 52 9 95 18 11 3 40 8 65 11 25 3 60 10 78 15 17
5 32 7 32 5 0 -3 27 9 60 27 33 17 60 36 60 40 0 5 7 9 15 9 8 0 15 3 15 8 0
4 16 24 35 46 20 21 42 55 51 75 9 20 20 43 24 52 12 22 23 97 21 134 -1 28
-15 122 -25 171 -5 26 -16 89 -21 129 -3 17 -7 41 -10 55 -3 14 -7 41 -11 60
-3 19 -9 55 -14 80 -5 25 -12 61 -14 80 -3 19 -7 44 -10 55 -2 11 -7 42 -10
69 -4 27 -9 52 -11 55 -3 6 -8 35 -21 119 -3 20 -7 46 -9 57 -8 38 -20 105
-30 170 -10 59 -17 102 -20 120 -2 11 -6 31 -9 45 -9 43 -14 74 -20 118 -3 24
-7 46 -10 50 -2 4 -7 34 -11 67 -3 32 -8 62 -11 66 -2 4 -6 24 -9 45 -2 22 -9
61 -15 87 -5 27 -9 51 -8 55 1 4 -2 18 -5 32 -7 25 -9 36 -27 145 -12 72 -18
106 -26 143 -7 34 -14 78 -18 117 -2 17 -6 37 -9 45 -3 8 -8 33 -11 55 -3 22
-10 63 -16 91 -6 28 -10 55 -9 60 1 5 -1 20 -4 34 -4 14 -9 39 -12 55 -14 83
-37 213 -41 235 -3 14 -7 39 -9 55 -3 17 -7 41 -10 55 -3 14 -8 48 -11 75 -3
28 -8 53 -10 57 -5 8 -33 166 -40 223 -2 17 -10 66 -19 110 -8 44 -18 96 -20
115 -3 19 -8 52 -11 73 -7 42 -16 44 -94 26 -25 -6 -65 -12 -90 -15 -25 -2
-52 -7 -60 -9 -12 -4 -434 -77 -585 -102 -16 -2 -145 -25 -285 -49 -140 -25
-271 -47 -290 -50 -19 -3 -96 -16 -170 -29 -74 -13 -151 -26 -170 -29 -19 -3
-46 -8 -60 -10 -14 -3 -80 -15 -147 -26 -67 -11 -132 -23 -145 -25 -13 -3 -52
-10 -88 -15 -36 -6 -76 -13 -90 -15 -14 -3 -65 -12 -115 -20 -49 -9 -101 -18
-115 -21 -14 -2 -133 -22 -265 -45 -132 -22 -242 -42 -245 -44 -3 -1 -27 -5
-55 -9 -49 -6 -73 -10 -127 -22 -15 -3 -42 -7 -60 -9 -18 -2 -177 -29 -353
-60 -418 -74 -455 -79 -465 -69 -8 8 -17 46 -19 81 -1 7 -25 23 -53 36 -29 14
-75 35 -102 47 l-48 23 23 18 c12 9 40 22 61 28 21 7 38 16 38 22 0 6 4 8 8 5
8 -5 172 52 182 64 3 3 12 6 20 8 8 1 24 7 35 12 11 5 70 29 130 54 241 98
295 123 288 131 -5 4 -3 5 3 2 10 -6 66 13 169 58 17 7 68 27 115 45 47 18 99
38 115 46 58 25 650 268 795 326 58 23 197 80 310 128 113 47 255 106 315 130
122 48 428 174 660 270 83 34 152 66 153 71 2 5 8 7 13 4 4 -3 28 3 51 13 24
10 59 25 78 32 62 23 324 131 361 148 34 16 36 19 26 42 -5 14 -11 32 -13 40
-2 8 -7 23 -12 35 -32 68 -52 116 -52 128 0 7 -4 17 -9 23 -5 5 -18 34 -29 64
-11 30 -28 73 -38 95 -10 22 -19 46 -20 53 -1 7 -12 33 -23 58 -12 24 -21 48
-21 53 0 22 -33 14 -150 -35z"/>
</g>
</svg>
